<svg xmlns="http://www.w3.org/2000/svg" viewBox="0 0 64 64">
  <defs>
    <linearGradient id="g" x1="0" y1="0" x2="1" y2="1">
      <stop offset="0" stop-color="#2a8cff" />
      <stop offset="1" stop-color="#005eff" />
    </linearGradient>
  </defs>
  <rect width="64" height="64" rx="14" fill="url(#g)" />
  <path
    fill="#fff"
    d="M39.8 18.4c-2.1-1.2-4.8-1.9-7.7-1.9-6.6 0-11.6 3.2-11.6 8 0 2.8 2.1 4.8 6.3 6.1l6 1.9c2.6.8 3.8 1.7 3.8 3 0 2-2.4 3.4-5.8 3.4-3.1 0-6.1-.9-8.7-2.6l-2.7 4.2c3.3 2.2 7.2 3.4 11.5 3.4 7.2 0 12.4-3.4 12.4-8.4 0-3.2-2.2-5.3-7-6.8l-6.1-1.9c-2.4-.7-3.3-1.4-3.3-2.6 0-1.8 2.3-3.1 5.5-3.1 2.4 0 4.7.6 6.6 1.7l2.5-4.4Z"
  />
</svg>
